<?xml version="1.0" encoding="utf-8"?>
<!-- Generator: Adobe Illustrator 26.0.1, SVG Export Plug-In . SVG Version: 6.00 Build 0)  -->
<svg version="1.1" id="Layer_1" xmlns="http://www.w3.org/2000/svg" xmlns:xlink="http://www.w3.org/1999/xlink" x="0px" y="0px"
	 viewBox="0 0 56.3 55.1" style="enable-background:new 0 0 56.3 55.1;" xml:space="preserve">
<style type="text/css">
	.st0{fill:#49B449;}
</style>
<g id="Layer_2_00000076595932429199090080000006279214655280712368_">
	<g id="Layer_1-2">
		<g id="Layer_1-2-2">
			<path class="st0" d="M4.2,7.1c0,1.3,4,17.6,5.3,19s7.4,2.5,8.5,3.2s10.5,18.1,10.5,18.1V44c0,0-7.4-13.6-7.5-14.2
				c-0.5-0.8,5.1-6.2,5.6-7.4c0.5-1.9,0.9-3.9,1.2-5.8c0-1.7-1.2,0.6-2.7,5C23.9,24,22,26,19.5,27.4c-2.9-0.7-5.8-1.6-8.5-2.8
				c-0.7-0.8-1-1.9-1-3c0.1-0.9,4.7-5.4,4.2-5.9s-4.5,3.9-4.8,3.7S5.2,7.1,4.2,7.1z"/>
			<path class="st0" d="M28.5,54.2v-2.6c-13.5,0-24.5-10.9-24.5-24.5c0-2.7,0.5-5.4,1.4-8l-1.2-4.5C2.1,18.5,1,22.8,1,27.1
				c0,15,12.1,27.1,27.1,27.1H28.5"/>
			<path class="st0" d="M28.5,2.6V0h-0.3C20.2,0,12.7,3.4,7.5,9.5l1.1,3.3C13.2,6.4,20.6,2.6,28.5,2.6z"/>
			<path class="st0" d="M52.7,7.1c0,1.3-4,17.6-5.3,19S40,28.5,39,29.2S28.5,47.4,28.5,47.4V44c0,0,7.4-13.6,7.5-14.2
				c0.5-0.8-5.1-6.2-5.6-7.4c-0.5-1.9-0.9-3.8-1.2-5.8c0-1.7,1.2,0.6,2.7,5c1.2,2.5,3.2,4.5,5.6,5.8c2.9-0.7,5.7-1.6,8.5-2.8
				c0.6-0.8,1-1.9,1-3c-0.2-0.9-4.9-5.4-4.3-5.9s4.5,3.9,4.8,3.7S51.7,7.1,52.7,7.1z"/>
			<path class="st0" d="M28.5,54.2v-2.6c13.5,0,24.5-11,24.5-24.5c0-2.7-0.5-5.4-1.3-8l1.2-4.5c6.9,13.3,1.7,29.7-11.5,36.6
				c-3.8,2-8.1,3.1-12.5,3.1H28.5"/>
			<path class="st0" d="M28.5,2.6V0h0.3c7.9,0,15.4,3.4,20.6,9.5l-1.1,3.3C43.7,6.4,36.3,2.6,28.5,2.6z"/>
		</g>
	</g>
</g>
</svg>
