<svg xmlns="http://www.w3.org/2000/svg" viewBox="0 0 24 24"><defs><style>.cls-1{fill:#fff;opacity:0;}.cls-2{fill:#707070;}</style></defs><g id="Layer_2" data-name="Layer 2"><g id="Layer_1-2" data-name="Layer 1"><rect class="cls-1" width="24" height="24"/><path class="cls-2" d="M17.88,19.3A11,11,0,0,1,1.18,12,11,11,0,0,1,4.52,5.93L1.39,2.81,2.81,1.39l19.8,19.8-1.42,1.42ZM5.94,7.35A9,9,0,0,0,3.22,12a9,9,0,0,0,13.2,5.84l-2-2A4.5,4.5,0,0,1,8.19,9.6Zm7,7L9.67,11.09a2.5,2.5,0,0,0,3.24,3.24Zm7.9,2.26-1.43-1.43A8.94,8.94,0,0,0,20.78,12,9,9,0,0,0,9.55,5.34L8,3.76A11,11,0,0,1,22.82,12,11,11,0,0,1,20.81,16.59ZM11.72,7.51H12A4.49,4.49,0,0,1,16.5,12a2.62,2.62,0,0,1,0,.28Z"/></g></g></svg>