<?xml version="1.0" encoding="UTF-8"?>
<svg width="70px" height="70px" viewBox="0 0 70 70" version="1.1" xmlns="http://www.w3.org/2000/svg" xmlns:xlink="http://www.w3.org/1999/xlink">
    <title>07125F4B-378A-4547-9E36-7830995B7123</title>
    <defs>
        <circle id="path-1" cx="35" cy="35" r="35"></circle>
    </defs>
    <g id="Page-1" stroke="none" stroke-width="1" fill="none" fill-rule="evenodd">
        <g id="05.1_My_Profile" transform="translate(-310.000000, -167.000000)">
            <g id="noun-account-275225" transform="translate(310.000000, 167.000000)">
                <mask id="mask-2" fill="white">
                    <use xlink:href="#path-1"></use>
                </mask>
                <use id="Mask" fill="#FAFAFA" xlink:href="#path-1"></use>
                <g mask="url(#mask-2)" fill="#E0E0E0" fill-rule="nonzero" id="Shape">
                    <g transform="translate(35.376344, 44.622383) scale(-1, 1) translate(-35.376344, -44.622383) translate(10.248139, 18.527709)">
                        <path d="M25.1279604,27.2293102 C32.6976774,27.2293102 38.8343431,21.133713 38.8343431,13.6146551 C38.8343431,6.09559714 32.6976774,0 25.1279604,0 C17.5582434,0 11.4215777,6.09559714 11.4215777,13.6146551 C11.4215777,21.133713 17.5582434,27.2293102 25.1279604,27.2293102 Z M0,51.0549566 C0,51.6817413 0.511027794,52.1893491 1.14203539,52.1893491 L49.1143749,52.1893491 C49.7453825,52.1893491 50.2564103,51.6817413 50.2564103,51.0549566 L50.2564103,48.7856853 C50.2564103,39.6079491 44.0791149,31.7673665 31.9816412,31.7673665 L18.2752585,31.7673665 C6.17754011,31.7673665 0,39.6079491 0,48.7856853 L0,51.0549566 Z"></path>
                    </g>
                </g>
            </g>
        </g>
    </g>
</svg>