<svg xmlns="http://www.w3.org/2000/svg" viewBox="0 0 24 24"><defs><style>.cls-1{fill:#fff;opacity:0;}.cls-2{fill:#707070;}</style></defs><g id="Layer_2" data-name="Layer 2"><g id="Layer_1-2" data-name="Layer 1"><rect class="cls-1" width="24" height="24"/><path class="cls-2" d="M12,3a11,11,0,0,1,10.82,9A11,11,0,0,1,1.18,12,11,11,0,0,1,12,3Zm0,16a9,9,0,0,0,8.78-7A9,9,0,0,0,3.22,12,9,9,0,0,0,12,19Zm0-2.5A4.5,4.5,0,1,1,16.5,12,4.49,4.49,0,0,1,12,16.5Zm0-2A2.5,2.5,0,1,0,9.5,12,2.5,2.5,0,0,0,12,14.5Z"/></g></g></svg>