<svg xmlns="http://www.w3.org/2000/svg" viewBox="0 0 24 24"><defs><style>.cls-1{fill:#fafafa;opacity:0;}.cls-2{fill:none;stroke:#707070;stroke-linecap:round;stroke-linejoin:round;stroke-width:1.7px;}</style></defs><g id="Layer_2" data-name="Layer 2"><g id="Layer_1-2" data-name="Layer 1"><rect class="cls-1" width="24" height="24"/><path class="cls-2" d="M14.74,9l-.35,9M9.61,18,9.26,9m10-3.21,1,.17m-1-.17L18.16,19.67a2.25,2.25,0,0,1-2.24,2.08H8.08a2.25,2.25,0,0,1-2.24-2.08L4.77,5.79m14.46,0c-1.16-.17-2.32-.31-3.48-.4M3.75,6l1-.17m0,0c1.16-.17,2.32-.31,3.48-.4m7.5,0V4.48a2.17,2.17,0,0,0-2.09-2.2c-1.11,0-2.21,0-3.32,0a2.17,2.17,0,0,0-2.09,2.2v.91m7.5,0a49.41,49.41,0,0,0-7.5,0"/></g></g></svg>