<svg xmlns="http://www.w3.org/2000/svg" viewBox="0 0 18.25 18.04"><defs><style>.cls-1,.cls-2{fill:#4ab549;}.cls-2{opacity:0.3;}</style></defs><g id="Layer_2" data-name="Layer 2"><g id="Layer_1-2" data-name="Layer 1"><g id="Layer_2-2" data-name="Layer 2"><g id="Layer_1-2-2" data-name="Layer 1-2"><path class="cls-1" d="M1.05,2.35c0,.42,1.34,5.84,1.77,6.3s2.45.82,2.83,1.07,3.5,6,3.5,6V14.65S6.68,10.11,6.64,9.9,8.35,7.82,8.5,7.45a18.06,18.06,0,0,0,.41-1.94c0-.56-.39.21-.88,1.68A4.47,4.47,0,0,1,6.15,9.11a16.27,16.27,0,0,1-2.81-.94,1.61,1.61,0,0,1-.35-1C3,6.9,4.56,5.41,4.38,5.24S2.88,6.55,2.77,6.46,1.39,2.35,1.05,2.35Z"/><path class="cls-2" d="M9.13,18v-.88A8.15,8.15,0,0,1,1.42,6.34L1,4.85A9,9,0,0,0,9,18h.12"/><path class="cls-2" d="M9.13.87V0H9A9,9,0,0,0,2.17,3.15l.35,1.08A8.14,8.14,0,0,1,9.13.87Z"/><path class="cls-1" d="M17.2,2.35c0,.42-1.34,5.84-1.77,6.3S13,9.47,12.62,9.72s-3.49,6-3.49,6V14.65s2.46-4.54,2.5-4.75S9.92,7.82,9.78,7.45a15.7,15.7,0,0,1-.39-1.93c0-.56.39.2.88,1.68a4.41,4.41,0,0,0,1.88,1.92A17.49,17.49,0,0,0,15,8.18a1.67,1.67,0,0,0,.35-1c-.08-.3-1.62-1.79-1.43-2s1.49,1.31,1.6,1.22S16.87,2.35,17.2,2.35Z"/><path class="cls-2" d="M9.13,18v-.88A8.15,8.15,0,0,0,16.82,6.34l.41-1.49A9,9,0,0,1,13.39,17a9.23,9.23,0,0,1-4.16,1h-.1"/><path class="cls-2" d="M9.13.87V0h.1a9,9,0,0,1,6.85,3.15l-.36,1.08A8.11,8.11,0,0,0,9.13.87Z"/></g></g></g></g></svg>